<?xml version="1.0"?>
<svg xmlns="http://www.w3.org/2000/svg" id="Layer_1" data-name="Layer 1" viewBox="0 0 512 512" width="512" height="512"><path d="M305.887,168.691c2.717,2.245,5.53,4.432,8.364,6.5a6,6,0,1,0,7.077-9.692c-2.642-1.929-5.265-3.967-7.8-6.06a6,6,0,1,0-7.644,9.251Z"/><path d="M291.939,155.871a6,6,0,0,0,8.571-8.4c-25.3-25.817-35.179-52.4-35.324-52.8A6,6,0,0,0,253.9,98.746C254.323,99.928,264.642,128.02,291.939,155.871Z"/><path d="M368.054,352.223H305.506V310.964a86.1,86.1,0,0,0,34.723-69.089v-9.15c6.712,2.873,13.759,5.647,21.2,8.283a6,6,0,0,0,8-5.656V163.619a109.557,109.557,0,0,0-53.991-94.356,56.633,56.633,0,0,0,.59-7.889h4.56a16.022,16.022,0,1,0,0-12h-5.8a56.109,56.109,0,0,0-109.737,0h-2.773a6,6,0,0,0,0,12h1.535a56.508,56.508,0,0,0,.6,7.882,109.561,109.561,0,0,0-54,94.363V177.56a76.481,76.481,0,0,0,4.875,26.934,21,21,0,0,0,12.572,36.076v1.305A86.159,86.159,0,0,0,206.494,313.7v38.522H143.946a64.586,64.586,0,0,0-64.513,64.513V501a6,6,0,0,0,6,6H426.567a6,6,0,0,0,6-6V416.736A64.586,64.586,0,0,0,368.054,352.223ZM335.44,51.352a4.023,4.023,0,1,1-4.023,4.022A4.027,4.027,0,0,1,335.44,51.352ZM259.927,17a44.164,44.164,0,0,1,44.114,44.113q0,1.133-.058,2.262a109.388,109.388,0,0,0-88.107,0c-.038-.752-.062-1.5-.062-2.26A44.163,44.163,0,0,1,259.927,17ZM162.419,163.619a97.508,97.508,0,1,1,195.016,0v63.136c-61.072-23.285-93.859-55.539-110.747-78.954-18.95-26.272-22.517-47.37-22.58-47.758a6,6,0,0,0-11.861,1.819c.12.79,2.655,16.539,15.146,38.189A102.8,102.8,0,0,0,194.316,154.7a59.7,59.7,0,0,0-26.163,43.964,20.747,20.747,0,0,0-2.1.281,64.6,64.6,0,0,1-3.634-21.385Zm17.447,78.256v-7.211a6,6,0,0,0-6-6h-4.009a9.035,9.035,0,0,1,0-18.069h4.009a6,6,0,0,0,6-6,47.847,47.847,0,0,1,21.123-39.921,90.292,90.292,0,0,1,33.193-13.819c.738,1.085,1.493,2.176,2.28,3.279,15.378,21.533,43.217,50.018,91.767,73.168v14.573a74.182,74.182,0,0,1-148.363,0Zm113.64,76.578v39.7l-13.183,43.013a69.656,69.656,0,0,1-48.635.036l-13.194-43.049v-37.8a85.865,85.865,0,0,0,75.012-1.9ZM91.433,495V416.736a52.572,52.572,0,0,1,52.513-52.513H207.8L247.885,495Zm144.513-79.908a81.89,81.89,0,0,0,40.116-.025L256,480.524ZM420.567,495H264.115L304.2,364.223h63.857a52.572,52.572,0,0,1,52.513,52.513Z"/><path d="M375.062,432.959H324.021a6,6,0,0,0,0,12h51.041a6,6,0,0,0,0-12Z"/></svg>
