<svg id="Layer_1" enable-background="new 0 0 512 512" height="512" viewBox="0 0 512 512" width="512" xmlns="http://www.w3.org/2000/svg"><g><path d="m464 32h-40v-8c0-13.233-10.767-24-24-24s-24 10.767-24 24v8h-240v-8c0-13.233-10.766-24-24-24s-24 10.767-24 24v8h-40c-17.645 0-32 14.355-32 32v336c0 17.645 14.355 32 32 32h88c4.418 0 8-3.582 8-8s-3.582-8-8-8h-88c-8.822 0-16-7.178-16-16v-272h448v272c0 8.822-7.178 16-16 16h-88c-4.418 0-8 3.582-8 8s3.582 8 8 8h88c17.645 0 32-14.355 32-32 0-14.641 0-319.924 0-336 0-17.645-14.355-32-32-32zm-72-8c0-4.411 3.589-8 8-8s8 3.589 8 8v40c0 4.411-3.589 8-8 8s-8-3.589-8-8zm-288 0c0-4.411 3.589-8 8-8s8 3.589 8 8v40c0 4.411-3.589 8-8 8s-8-3.589-8-8zm-72 88v-48c0-8.822 7.178-16 16-16h40v16c0 13.233 10.766 24 24 24s24-10.767 24-24v-16h240v16c0 13.233 10.767 24 24 24s24-10.767 24-24v-16h40c8.822 0 16 7.178 16 16v48z"/><path d="m256 208c-52.935 0-96 43.065-96 96v112c0 53.034 42.926 96 96 96 53.893 0 96-43.81 96-96v-112c0-52.935-43.065-96-96-96zm-69.396 162.268c37.794 39.561 100.66 39.653 138.572.226-10.875 29.324-31.596 56.346-69.187 71.796-37.46-15.375-58.418-42.106-69.385-72.022zm69.396 125.732c-44.193 0-80-35.775-80-80v-29.774c18.806 41.795 58.202 79.188 137.901 84.995-14.956 15.717-35.732 24.779-57.901 24.779zm80-80c0 14.063-3.653 27.739-10.602 39.817-17.753-.625-33.48-2.833-47.416-6.343 26.066-14.405 45.483-35.528 58.017-63.251v29.777zm-80-32c-44.112 0-80-35.888-80-80 0-36.702 24.852-67.689 58.605-77.071-4.935 5.186-8.87 11.899-10.438 19.443-3.103 14.928 9.353 33.628 31.833 33.628 31.013 0 30.713-32.843 10.53-39.59-4.193-1.395-8.722.868-10.12 5.06-1.397 4.192.868 8.723 5.059 10.12.022.007 2.283.969 2.94 2.94.322.965.365 2.33-.263 3.202-2.085 2.893-15.296 4.268-21.461-3.312-2.448-3.009-3.289-6.701-2.854-8.793 2.244-10.785 12.458-17.627 16.169-17.627 4.283 0 7.77-3.369 7.98-7.601 40.379 4.018 72.02 38.182 72.02 79.601 0 44.112-35.888 80-80 80z"/><path d="m232 296c0-4.418-3.582-8-8-8s-8 3.582-8 8v8c0 4.418 3.582 8 8 8s8-3.582 8-8z"/><path d="m288 288c-4.418 0-8 3.582-8 8v8c0 4.418 3.582 8 8 8s8-3.582 8-8v-8c0-4.418-3.582-8-8-8z"/><path d="m267.314 339.313c-6.239 6.237-16.391 6.239-22.628 0-3.124-3.123-8.189-3.124-11.314.001-3.124 3.124-3.124 8.189 0 11.313 12.475 12.473 32.777 12.477 45.254 0 3.125-3.124 3.125-8.189.001-11.313s-8.189-3.124-11.313-.001z"/></g></svg>